HIERARCHY
ROOT pelvis
{
  OFFSET 0 100 0
  CHANNELS 6 Xposition Yposition Zposition Zrotation Xrotation Yrotation
  JOINT pelvis_right_femur
  {
    OFFSET -10.78128 -3.44521 -0.5502486
    CHANNELS 3 Zrotation Xrotation Yrotation
    JOINT right_femur_tibia
    {
      OFFSET -0.8047443 -44.0398 -0.1307829
      CHANNELS 3 Zrotation Xrotation Yrotation
      JOINT right_tibia_foot
      {
        OFFSET 3.006224 -47.83518 -5
        CHANNELS 3 Zrotation Xrotation Yrotation
        End Site
        {
          OFFSET 0 -5 15
        }
      }
    }
  }
  JOINT pelvis_left_femur
  {
    OFFSET 10.78128 -3.44521 -0.5502486
    CHANNELS 3 Zrotation Xrotation Yrotation
    JOINT left_femur_tibia
    {
      OFFSET 0.8047443 -44.0398 -0.1307829
      CHANNELS 3 Zrotation Xrotation Yrotation
      JOINT left_tibia_foot
      {
        OFFSET -4.370144 -48.10324 -4.275266
        CHANNELS 3 Zrotation Xrotation Yrotation
        End Site
        {
          OFFSET 0 -5 15
        }
      }
    }
  }
  JOINT pelvis_spine1
  {
    OFFSET 0 6.468898 -3.129235
    CHANNELS 3 Zrotation Xrotation Yrotation
    JOINT spine1
    {
      OFFSET 0 23.15396 4.99043
      CHANNELS 3 Zrotation Xrotation Yrotation
      JOINT spine2
      {
        OFFSET 0 20.79997 -5.064912
        CHANNELS 3 Zrotation Xrotation Yrotation
        JOINT neck
        {
          OFFSET 0 14.38658 9.616178
          CHANNELS 3 Zrotation Xrotation Yrotation
          End Site
          {
            OFFSET 0 20 0
          }
        }
      }
      JOINT right_manubrium
      {
        OFFSET -5.722621 16.35077 3.967754
        CHANNELS 3 Zrotation Xrotation Yrotation
        JOINT right_clavicle
        {
          OFFSET -13.16364 1.694482 -4.693211
          CHANNELS 3 Zrotation Xrotation Yrotation
          JOINT right_humerus
          {
            OFFSET -28.5034 -0.3100689 -2.792744
            CHANNELS 3 Zrotation Xrotation Yrotation
            JOINT right_radius
            {
              OFFSET -25.15693 0.02248979 -1.271978
              CHANNELS 3 Zrotation Xrotation Yrotation
              End Site
              {
                OFFSET -15 0 0
              }
            }
          }
        }
      }
      JOINT left_manubrium
      {
        OFFSET 5.722621 16.35077 3.967754
        CHANNELS 3 Zrotation Xrotation Yrotation
        JOINT left_clavicle
        {
          OFFSET 13.16364 1.694482 -4.693211
          CHANNELS 3 Zrotation Xrotation Yrotation
          JOINT left_humerus
          {
            OFFSET 29.39168 -1.063119 -2.237045
            CHANNELS 3 Zrotation Xrotation Yrotation
            JOINT left_radius
            {
              OFFSET 24.59957 -0.9528479 0.9047498
              CHANNELS 3 Zrotation Xrotation Yrotation
              End Site
              {
                OFFSET 15 -0 -0
              }
            }
          }
        }
      }
    }
  }
}
MOTION
Frames: 13
Frame Time: 0.0416666666667
0 103.5113 0 2.436643 -0.8050246 0.05399352 3.20466 -13.81123 11.61287 -0 37.00573 -0 -4.382031 -18.38463 -4.606946 -8.331148 8.998821 -21.22018 -0 6.036646 -0 21.16035 -9.455591 28.74134 -1.800747 -1.57525 4.884867 1.941663 10.83194 -6.989917 1.60105 21.30366 6.334178 3.990411 -24.33337 8.383216 5.991793 -18.27515 11.07785 86.53207 35.22975 -19.31016 -0 0 13.13006 -10.0377 9.057774 4.904639 6.256205 -21.17963 -3.110674 -92.12241 22.31794 20.16903 0 0 -15.65386 12.01485 14.23449 0.6248841
0.3853313 103.5322 1.422303 1.988201 0.7532483 0.01345455 4.194694 -17.07743 12.1176 -0 37.21757 -0 -4.434441 -17.66219 -4.312831 -8.377957 9.329332 -21.38155 -0 5.965312 -0 21.23324 -10.70498 29.14298 -1.919062 -1.749459 4.608288 2.298393 10.55037 -7.323919 1.581083 21.04492 6.470511 3.925424 -24.94639 8.619174 6.006986 -18.19025 11.15225 86.45857 34.96509 -19.552 -0 0 13.19268 -9.693689 9.13096 4.837426 6.46792 -21.15378 -2.58932 -92.00665 22.08504 19.62852 0 0 -15.72621 12.20865 14.35672 0.006167549
0.6268258 103.1558 3.177185 1.682686 -1.14495 0.0886581 3.459401 -16.86812 7.217593 -0 34.24029 -0 -6.598205 -15.50758 -2.940562 -7.794518 10.98719 -21.29186 -0 6.401664 -0 15.52592 -14.49647 27.74383 -1.918338 -1.778698 4.657076 2.251017 10.58998 -7.291478 1.593541 21.07506 6.440763 3.923848 -24.87241 8.606248 6.018172 -18.23733 11.13043 86.46714 34.9927 -19.55574 -0 0 13.27538 -9.660378 9.103066 4.768613 6.47489 -21.17308 -2.639197 -92.09592 22.13417 19.76941 0 0 -15.65083 12.23847 14.4143 0.03901145
0.7707072 102.6768 5.280202 1.176743 -1.39118 0.08215306 3.734597 -19.20851 4.771254 -0 31.94204 -0 -7.858546 -13.16996 -1.94277 -7.340157 11.96142 -20.73354 -0 7.028286 -0 12.97821 -16.84496 26.66604 -1.918509 -1.81419 4.70948 2.200165 10.63222 -7.258984 1.606209 21.10433 6.411302 3.92431 -24.79351 8.593348 6.029085 -18.29016 11.1067 86.47697 35.01982 -19.56235 -0 0 13.37064 -9.626295 9.073923 4.690152 6.490079 -21.19984 -2.688813 -92.1918 22.17266 19.91733 0 0 -15.56695 12.2858 14.4792 0.05276161
0.8491824 102.0225 7.801741 0.7545205 -1.861034 0.05675291 3.902316 -21.35786 2.202527 -0 28.95054 -0 -9.18079 -10.48221 -0.8752596 -6.898523 12.77505 -19.68396 -0 8.069653 -0 11.33903 -18.46094 25.42452 -1.920064 -1.850787 4.75454 2.158098 10.66632 -7.23423 1.617322 21.12699 6.386795 3.924251 -24.72874 8.584948 6.039859 -18.33848 11.08541 86.48499 35.04038 -19.57416 -0 0 13.46193 -9.587602 9.047589 4.615434 6.508296 -21.22517 -2.726652 -92.28193 22.20898 20.05052 0 0 -15.49228 12.32822 14.54261 0.06369072
0.8843153 101.2473 10.82122 0.3366723 -2.023826 0.01788023 4.165043 -23.93159 -0.01122233 -0 25.46019 -0 -10.33257 -7.518713 0.1898982 -6.514956 13.45412 -18.28401 -0 9.500521 -0 10.43661 -19.62352 24.07775 -1.922344 -1.888441 4.797461 2.118245 10.69882 -7.212391 1.627441 21.14652 6.364794 3.925393 -24.66731 8.577355 6.049403 -18.38606 11.06498 86.49311 35.0577 -19.58743 -0 0 13.55312 -9.551623 9.022745 4.541164 6.530486 -21.25324 -2.76041 -92.3677 22.23403 20.17502 0 0 -15.41907 12.37847 14.60469 0.06019469
0.8901751 100.384 14.40223 0.02293889 -2.141906 -0.001715908 4.333351 -26.1275 -2.075736 -0 21.59926 -0 -11.37419 -4.41223 1.245359 -6.226138 14.04189 -16.61804 -0 11.48567 -0 9.925926 -20.23839 22.58488 -1.924254 -1.924134 4.838576 2.079835 10.73033 -7.191755 1.63654 21.1645 6.344599 3.927571 -24.60748 8.569228 6.057719 -18.43138 11.04559 86.50167 35.07333 -19.60055 -0 0 13.63942 -9.520223 8.999299 4.470686 6.552855 -21.28199 -2.793248 -92.44767 22.25283 20.29165 0 0 -15.35054 12.42939 14.66229 0.05256505
0.8740952 99.51869 18.59976 -0.2253655 -2.121384 0.02119212 4.502805 -27.87166 -3.757646 -0 17.71216 -0 -12.19924 -1.247414 2.184312 -5.998602 14.54658 -14.79799 -0 14.21772 -0 9.360191 -20.33727 20.82632 -1.924868 -1.956801 4.880944 2.038837 10.76454 -7.169067 1.644745 21.18315 6.325015 3.932075 -24.54244 8.557996 6.06413 -18.47603 11.02643 86.51188 35.08979 -19.61103 -0 0 13.7214 -9.498513 8.976652 4.403343 6.575015 -21.31347 -2.830474 -92.52211 22.26148 20.40418 0 0 -15.28388 12.48587 14.71441 0.03761874
0.8352937 98.75962 23.43381 -0.4354848 -2.043001 0.08911497 4.765524 -28.84677 -4.871649 -0 14.29881 -0 -12.75093 1.756449 2.872136 -5.778774 14.90336 -12.93151 -0 17.96746 -0 8.474391 -19.76278 18.79304 -1.923008 -1.984737 4.926734 1.992323 10.80379 -7.141602 1.652055 21.20437 6.305259 3.939843 -24.46717 8.541593 6.0683 -18.52049 11.007 86.52473 35.10938 -19.61706 -0 0 13.79785 -9.490031 8.954355 4.339784 6.595432 -21.34837 -2.876616 -92.59125 22.26028 20.51629 0 0 -15.21896 12.54757 14.75958 0.01859233
0.7695141 98.23833 28.88161 -0.6772554 -1.955647 0.1687261 5.265168 -28.93873 -5.188795 -0 11.82635 -0 -12.95886 4.336209 3.160578 -5.476819 14.96637 -11.12656 -0 22.98375 -0 7.107749 -18.38274 16.54657 -1.917438 -2.006855 4.979108 1.936164 10.85139 -7.106075 1.658384 21.23018 6.284608 3.952534 -24.3747 8.517418 6.069584 -18.56637 10.98644 86.54148 35.13474 -19.61653 -0 0 13.86948 -9.499787 8.931839 4.279458 6.613851 -21.38899 -2.936977 -92.65596 22.24617 20.63292 0 0 -15.15368 12.61814 14.79695 -0.005677116
0.6719627 98.07665 34.85877 -0.9918477 -1.991901 0.1854298 6.046873 -27.98926 -4.661046 -0 10.58167 -0 -12.8317 6.172946 2.966112 -5.018578 14.4921 -9.486982 -0 29.40736 -0 5.342513 -16.11234 14.31659 -1.906721 -2.022013 5.041241 1.86619 10.91028 -7.059184 1.663444 21.26244 6.262785 3.972104 -24.25796 8.482866 6.067308 -18.61529 10.96397 86.56323 35.16843 -19.60723 -0 0 13.93717 -9.532982 8.908639 4.22214 6.630139 -21.43778 -3.016656 -92.71741 22.21652 20.7598 0 0 -15.08626 12.70029 14.82571 -0.03499943
0.541549 98.36116 41.21031 -1.362358 -2.280531 0.03886383 6.997289 -25.8641 -3.461218 -0 10.48578 -0 -12.46126 6.98748 2.317926 -4.383601 13.15992 -8.111757 -0 37.11946 -0 3.40693 -13.0729 12.4153 -1.889249 -2.029364 5.116727 1.777666 10.98341 -6.997415 1.666618 21.30272 6.240152 4.001242 -24.10896 8.43507 6.060523 -18.66946 10.93874 86.5909 35.21299 -19.58649 -0 0 14.00318 -9.596127 8.884469 4.167547 6.645104 -21.49821 -3.120632 -92.77724 22.16665 20.90379 0 0 -15.01387 12.79827 14.84535 -0.07087752
0.3815492 99.10872 47.71585 -1.685515 -2.914393 -0.3585031 7.831405 -22.44718 -1.993645 -0 11.04845 -0 -12.03145 6.63591 1.38476 -3.635366 10.63052 -7.075063 -0 45.59769 -0 1.593976 -9.656296 11.13295 -1.863249 -2.028332 5.209052 1.665925 11.07288 -6.917472 1.666781 21.35195 6.218188 4.043314 -23.9198 8.371272 6.048066 -18.73143 10.91008 86.62477 35.2705 -19.55111 -0 0 14.07099 -9.696622 8.859456 4.116003 6.660434 -21.57434 -3.25277 -92.83752 22.09077 21.07269 0 0 -14.93318 12.91616 14.85565 -0.1149088
